<?xml version="1.0" ?><!DOCTYPE svg  PUBLIC '-//W3C//DTD SVG 1.1//EN'  'http://www.w3.org/Graphics/SVG/1.1/DTD/svg11.dtd'><svg enable-background="new 0 0 128 128" height="128px" id="Layer_1" version="1.1" viewBox="0 0 128 128" width="128px" xml:space="preserve" xmlns="http://www.w3.org/2000/svg" xmlns:xlink="http://www.w3.org/1999/xlink"><path d="M118.142,23.125c-3.601-3.61-8.636-5.86-14.142-5.858H24c-5.505-0.002-10.54,2.248-14.142,5.858  C6.248,26.728,3.997,31.761,4,37.267v45.757c-0.003,5.507,2.248,10.541,5.858,14.143c3.602,3.61,8.637,5.861,14.142,5.857h2.017  l5.654,17.015c0.418,1.333,1.725,1.693,2.938,1.693c1.212,0,2.064-0.698,2.937-1.693l13.989-17.015H104  c5.506,0.004,10.542-2.247,14.143-5.857c3.611-3.602,5.86-8.636,5.857-14.143V37.267C124.003,31.761,121.754,26.728,118.142,23.125z" fill="#2EA048"/></svg>